<?xml version="1.0" encoding="UTF-8"?>
<svg id="Layer_1" data-name="Layer 1" xmlns="http://www.w3.org/2000/svg" viewBox="0 0 300 300">
  <defs>
    <style>
      .cls-1 {
        fill: #22c55e;
        stroke-width: 0px;
      }
    </style>
  </defs>
  <path class="cls-1" d="m198.56,167.98c-12.57,5.08-24.75-4.92-24.06-17.16h-20.22c-.04.68-.1,1.35-.11,2.02,0,4.57-.11,9.14.04,13.7.07,2-.63,2.56-2.5,2.4-1.76-.14-3.55-.12-5.32,0-1.56.1-2.13-.43-2.08-2.03.1-3.61.03-7.23.03-10.84,0-10.78.04-21.56-.04-32.34-.01-1.79.44-2.41,2.32-2.39,8.94.09,17.88.09,26.82,0,1.82-.02,2.27.59,2.17,2.28-.13,2.26-.03,4.53-.03,7.06h-21.3v10.61h21.18c.07,1.34.12,2.51.2,4.01,2.28-4.45,5.32-7.81,9.85-9.51,4.52-1.7,9.04-1.65,13.5.35-.04-.19-.08-.37-.13-.56.87-.32,1.72-.88,2.6-.93,2.33-.13,4.66-.04,7.14-.04.05.77.12,1.38.13,1.99,0,10.08-.03,20.17.04,30.25.01,1.72-.53,2.23-2.17,2.11-1.77-.12-3.55.05-5.32-.06-.79-.05-1.56-.49-2.76-.89Zm1.25-16.06c0-4.56-3.49-8.05-8.03-8.06-4.41,0-7.91,3.54-7.88,7.99.03,4.64,3.42,8.04,8.02,8.05,4.41,0,7.9-3.52,7.89-7.98Z"/>
  <path class="cls-1" d="m243.68,168.79h-9.14v-33.88c2.88-.93,8.76-.43,9.42.94,5.53-1.74,10.58-.71,15.06,3.02,4.74-3.78,9.9-5.05,15.52-2.69,5.57,2.33,8.81,6.64,9.05,12.71.25,6.27.06,12.55.06,18.82,0,.31-.08.61-.16,1.17-2.73,0-5.44.06-8.13-.07-.35-.02-.93-1.04-.94-1.61-.07-5.77,0-11.54-.06-17.3-.05-4.4-4.3-6.94-7.98-4.81-1.79,1.03-2.64,2.63-2.63,4.72.02,5.64-.05,11.28.03,16.92.02,1.61-.37,2.33-2.12,2.2-1.76-.14-3.55-.12-5.32,0-1.64.11-2.04-.57-2.02-2.09.07-5.32.05-10.65,0-15.97,0-1.06-.07-2.18-.42-3.17-.81-2.28-3.39-3.74-5.59-3.35-2.65.47-4.59,2.59-4.62,5.25-.05,5.64-.02,11.28-.02,16.92,0,.69,0,1.37,0,2.27Z"/>
  <path class="cls-1" d="m16.29,121.39c3.77,0,7.16-.06,10.55.06.49.02,1.07.79,1.41,1.33,2.68,4.37,5.32,8.77,7.97,13.16.32.53.66,1.05,1.16,1.83,1.28-2.11,2.44-4.02,3.6-5.95,1.82-3.04,3.61-6.1,5.48-9.11.33-.54.95-1.25,1.45-1.27,3.4-.11,6.8-.06,10.62-.06-.52.95-.84,1.59-1.22,2.2-4.69,7.59-9.43,15.16-14.06,22.79-.59.96-.94,2.22-.96,3.35-.1,5.7-.09,11.41-.02,17.11.02,1.53-.39,2.19-2.02,2.09-1.96-.12-3.93-.1-5.89,0-1.48.08-2-.43-1.98-1.94.07-5.64.09-11.28-.02-16.92-.03-1.31-.41-2.77-1.08-3.89-4.55-7.61-9.22-15.14-13.84-22.7-.35-.57-.65-1.16-1.16-2.08Z"/>
  <path class="cls-1" d="m67.84,169.08c-9.74-.08-17.3-7.74-17.23-17.45.07-9.41,8.02-17.2,17.47-17.12,9.52.08,17.35,8.05,17.25,17.56-.11,9.54-7.87,17.09-17.5,17.01Zm.15-9.31c4.42-.02,8.14-3.67,8.06-7.92-.08-4.39-3.68-7.98-8.02-7.99-4.4-.02-8.13,3.59-8.11,7.86.02,4.55,3.56,8.08,8.08,8.06Z"/>
  <path class="cls-1" d="m87.58,135.06h9.15c.03.67.09,1.33.09,2,0,5.45-.04,10.9.02,16.35.05,4.17,2.43,6.5,6.35,6.36,3.34-.12,5.52-2.58,5.56-6.42.05-5.26.01-10.52.01-15.78,0-.76,0-1.52,0-2.44h9.3c0,1.44.02,2.82,0,4.19-.09,5.7.28,11.45-.39,17.08-.94,7.92-7.71,12.99-15.87,12.7-7.33-.26-13.66-6.15-14.13-13.87-.4-6.62-.08-13.29-.08-20.17Z"/>
  <path class="cls-1" d="m142.11,134.26c0,2.79.05,5.5-.06,8.21-.01.35-.77.9-1.24.97-5.58.85-9.15,4.9-9.18,10.56-.02,4.31-.05,8.62.02,12.94.02,1.42-.34,2.09-1.92,2-2.02-.12-4.06.04-6.08-.09-.49-.03-1.34-.71-1.34-1.07.13-6.26-.29-12.63.75-18.75,1.45-8.47,9.81-14.85,17.94-14.86.3,0,.6.05,1.11.09Z"/>
  <path class="cls-1" d="m212.86,168.9c.7-7.54-1.14-14.9,1.4-21.98,2.66-7.42,9.92-12.67,17.32-12.75.31,0,.62.04,1.24.08,0,2.8.04,5.56-.05,8.31-.01.31-.73.8-1.17.87-5.94.99-9.28,4.85-9.29,10.82,0,4.25-.04,8.5.02,12.75.02,1.35-.32,1.98-1.8,1.92-2.39-.1-4.8-.03-7.67-.03Z"/>
</svg>